<?xml version="1.0" encoding="UTF-8"?>
<svg xmlns="http://www.w3.org/2000/svg" xmlns:xlink="http://www.w3.org/1999/xlink" width="20pt" height="20pt" viewBox="0 0 20 20" version="1.1">
<g id="surface1">
<path style=" stroke:none;fill-rule:nonzero;fill:rgb(100%,100%,100%);fill-opacity:1;" d="M 11.875 16.363281 C 11.875 18.167969 10.410156 19.636719 8.601562 19.636719 C 6.796875 19.636719 5.332031 18.167969 5.332031 16.363281 C 5.332031 14.554688 6.796875 13.089844 8.601562 13.089844 C 10.410156 13.089844 11.875 14.554688 11.875 16.363281 Z M 11.875 16.363281 "/>
<path style=" stroke:none;fill-rule:nonzero;fill:rgb(100%,100%,100%);fill-opacity:1;" d="M 14.335938 9.753906 C 11.5625 9.355469 9.421875 6.972656 9.421875 4.09375 C 9.421875 3.273438 9.59375 2.496094 9.90625 1.792969 C 9.488281 1.691406 9.050781 1.636719 8.601562 1.636719 C 5.445312 1.636719 2.875 4.207031 2.875 7.363281 L 2.875 9.644531 C 2.875 11.261719 2.167969 12.789062 0.921875 13.84375 C 0.605469 14.113281 0.421875 14.511719 0.421875 14.929688 C 0.421875 15.71875 1.066406 16.363281 1.851562 16.363281 L 15.351562 16.363281 C 16.140625 16.363281 16.785156 15.71875 16.785156 14.929688 C 16.785156 14.511719 16.605469 14.113281 16.273438 13.835938 C 15.066406 12.8125 14.367188 11.332031 14.335938 9.753906 Z M 14.335938 9.753906 "/>
<path style=" stroke:none;fill-rule:nonzero;fill:rgb(100%,100%,100%);fill-opacity:1;" d="M 19.238281 4.09375 C 19.238281 6.351562 17.40625 8.179688 15.144531 8.179688 C 12.886719 8.179688 11.058594 6.351562 11.058594 4.09375 C 11.058594 1.832031 12.886719 0 15.144531 0 C 17.40625 0 19.238281 1.832031 19.238281 4.09375 Z M 19.238281 4.09375 "/>
</g>
</svg>
