<?xml version="1.0" encoding="UTF-8"?>
<svg xmlns="http://www.w3.org/2000/svg" xmlns:xlink="http://www.w3.org/1999/xlink" width="20pt" height="20pt" viewBox="0 0 20 20" version="1.1">
<g id="surface1">
<path style=" stroke:none;fill-rule:nonzero;fill:rgb(100%,100%,100%);fill-opacity:1;" d="M 11.859375 15.910156 C 11.859375 17.542969 10.535156 18.863281 8.902344 18.863281 C 7.273438 18.863281 5.949219 17.542969 5.949219 15.910156 C 5.949219 14.277344 7.273438 12.953125 8.902344 12.953125 C 10.535156 12.953125 11.859375 14.277344 11.859375 15.910156 Z M 11.859375 15.910156 "/>
<path style=" stroke:none;fill-rule:nonzero;fill:rgb(100%,100%,100%);fill-opacity:1;" d="M 14.078125 9.941406 C 11.574219 9.585938 9.640625 7.429688 9.640625 4.828125 C 9.640625 4.089844 9.800781 3.390625 10.082031 2.753906 C 9.703125 2.664062 9.308594 2.613281 8.902344 2.613281 C 6.050781 2.613281 3.734375 4.933594 3.734375 7.785156 L 3.734375 9.84375 C 3.734375 11.304688 3.09375 12.683594 1.96875 13.636719 C 1.683594 13.878906 1.515625 14.238281 1.515625 14.617188 C 1.515625 15.328125 2.097656 15.910156 2.808594 15.910156 L 14.996094 15.910156 C 15.710938 15.910156 16.289062 15.328125 16.289062 14.617188 C 16.289062 14.238281 16.125 13.878906 15.832031 13.628906 C 14.742188 12.707031 14.109375 11.367188 14.078125 9.941406 Z M 14.078125 9.941406 "/>
<path style=" stroke:none;fill-rule:nonzero;fill:rgb(79.215686%,0%,27.843137%);fill-opacity:1;" d="M 18.507812 4.828125 C 18.507812 6.871094 16.851562 8.523438 14.8125 8.523438 C 12.773438 8.523438 11.121094 6.871094 11.121094 4.828125 C 11.121094 2.789062 12.773438 1.136719 14.8125 1.136719 C 16.851562 1.136719 18.507812 2.789062 18.507812 4.828125 Z M 18.507812 4.828125 "/>
</g>
</svg>
